<svg xmlns="http://www.w3.org/2000/svg" xmlns:xlink="http://www.w3.org/1999/xlink" viewBox="0 0 604.47 127.49"><defs><style>.cls-1{fill:#7f7f7f;}.cls-2{fill:#555;}.cls-3{fill:url(#linear-gradient);}.cls-4{fill:url(#linear-gradient-2);}.cls-5{fill:url(#linear-gradient-3);}.cls-6{fill:url(#linear-gradient-4);}.cls-7{fill:#8be3e8;}</style><linearGradient id="linear-gradient" x1="128.56" y1="81.72" x2="139.28" y2="20.91" gradientUnits="userSpaceOnUse"><stop offset="0" stop-color="#4070f2"/><stop offset="0.22" stop-color="#4475f1"/><stop offset="0.49" stop-color="#4e85f0"/><stop offset="0.78" stop-color="#5e9eee"/><stop offset="0.85" stop-color="#63a5ed"/></linearGradient><linearGradient id="linear-gradient-2" x1="82.46" y1="25.92" x2="139.86" y2="25.92" gradientUnits="userSpaceOnUse"><stop offset="0.15" stop-color="#8be3e8"/><stop offset="0.43" stop-color="#7dceea"/><stop offset="0.85" stop-color="#63a5ed"/><stop offset="0.99" stop-color="#63a5ed"/></linearGradient><linearGradient id="linear-gradient-3" x1="83.12" y1="37.61" x2="104.38" y2="74.43" gradientUnits="userSpaceOnUse"><stop offset="0" stop-color="#8be3e8"/><stop offset="0.23" stop-color="#8be3e8"/><stop offset="0.3" stop-color="#8ee4e9" stop-opacity="0.98"/><stop offset="0.38" stop-color="#96e6ea" stop-opacity="0.91"/><stop offset="0.47" stop-color="#a3e9ed" stop-opacity="0.79"/><stop offset="0.57" stop-color="#b6edf1" stop-opacity="0.63"/><stop offset="0.61" stop-color="#bdeff2" stop-opacity="0.57"/><stop offset="0.69" stop-color="#c8f2f4" stop-opacity="0.47"/><stop offset="0.85" stop-color="#e4f8fa" stop-opacity="0.24"/><stop offset="1" stop-color="#fff" stop-opacity="0"/></linearGradient><linearGradient id="linear-gradient-4" x1="27.56" y1="90.84" x2="191.15" y2="-3.6" gradientUnits="userSpaceOnUse"><stop offset="0" stop-color="#8be3e8"/><stop offset="0.18" stop-color="#76c3eb"/><stop offset="0.42" stop-color="#5f9fee"/><stop offset="0.64" stop-color="#4e85f0"/><stop offset="0.84" stop-color="#4475f2"/><stop offset="1" stop-color="#4070f2"/></linearGradient></defs><title>doctomation-logo</title><g id="Layer_2" data-name="Layer 2"><g id="Layer_1-2" data-name="Layer 1"><path class="cls-1" d="M187.43,103.4a8.4,8.4,0,0,1,2.42,1.57l-1,1a7.79,7.79,0,0,0-2.07-1.31,6.15,6.15,0,0,0-2.29-.41,4.37,4.37,0,0,0-2.82.86,2.83,2.83,0,0,0-1.06,2.31,3,3,0,0,0,.4,1.62,3.39,3.39,0,0,0,1.32,1.15,14.62,14.62,0,0,0,2.65,1,14.9,14.9,0,0,1,3,1.23,4.88,4.88,0,0,1,1.77,1.69,5,5,0,0,1,.63,2.62,5.19,5.19,0,0,1-.76,2.81,5.12,5.12,0,0,1-2.17,1.91,7.34,7.34,0,0,1-3.26.68,8.4,8.4,0,0,1-6-2.34l.93-1a8.92,8.92,0,0,0,2.32,1.49,6.88,6.88,0,0,0,2.7.5,5,5,0,0,0,3.29-1.06,3.6,3.6,0,0,0,1.27-2.89,3.78,3.78,0,0,0-.43-1.89,3.5,3.5,0,0,0-1.36-1.27,14.93,14.93,0,0,0-2.66-1.07,10.86,10.86,0,0,1-4.1-2,4.07,4.07,0,0,1-1.22-3.12,4.21,4.21,0,0,1,.69-2.36,4.59,4.59,0,0,1,1.94-1.63,6.48,6.48,0,0,1,2.85-.59A8,8,0,0,1,187.43,103.4Z"/><path class="cls-1" d="M196.42,101.67a1.18,1.18,0,0,1,0,1.64,1.16,1.16,0,0,1-.87.33,1.12,1.12,0,0,1-.84-.33,1.18,1.18,0,0,1,0-1.64,1.12,1.12,0,0,1,.84-.33A1.16,1.16,0,0,1,196.42,101.67Zm0,6v14.27h-1.58V107.62Z"/><path class="cls-1" d="M218.79,108.49a4.83,4.83,0,0,1,1,3.2v10.2H218.2v-10a4,4,0,0,0-.64-2.5,2.14,2.14,0,0,0-1.79-.81,3.36,3.36,0,0,0-2.15.77,8.67,8.67,0,0,0-1.86,2.18v10.34h-1.58v-10a4,4,0,0,0-.64-2.5,2.15,2.15,0,0,0-1.79-.81,3.38,3.38,0,0,0-2.18.77,8.22,8.22,0,0,0-1.83,2.18v10.34h-1.58V107.62h1.36l.14,2.43a6.44,6.44,0,0,1,1.94-2,4.42,4.42,0,0,1,2.45-.72,3.51,3.51,0,0,1,2.29.75,3.75,3.75,0,0,1,1.26,2.09,6.75,6.75,0,0,1,2-2.09,4.42,4.42,0,0,1,2.49-.75A3.38,3.38,0,0,1,218.79,108.49Z"/><path class="cls-1" d="M235.22,109.24a9.76,9.76,0,0,1,1.3,5.45,9.43,9.43,0,0,1-1.41,5.47,4.59,4.59,0,0,1-4,2,4.91,4.91,0,0,1-2.31-.53,5.08,5.08,0,0,1-1.75-1.43v7l-1.58.22V107.62h1.36l.14,2.08a5.62,5.62,0,0,1,1.92-1.75,5,5,0,0,1,2.47-.63A4.39,4.39,0,0,1,235.22,109.24Zm-1.43,10.06a8.37,8.37,0,0,0,1-4.61q0-6.06-3.79-6.06a3.76,3.76,0,0,0-2.22.66,7.45,7.45,0,0,0-1.79,1.8v7.58a4.3,4.3,0,0,0,3.76,2.19A3.38,3.38,0,0,0,233.79,119.3Z"/><path class="cls-1" d="M241.82,121.51a2.79,2.79,0,0,1-.66-2V101.81l1.58-.19v17.82c0,.93.38,1.39,1.15,1.39a2.26,2.26,0,0,0,1-.19l.44,1.17a3.56,3.56,0,0,1-1.64.38A2.47,2.47,0,0,1,241.82,121.51Z"/><path class="cls-1" d="M250.68,101.67a1.18,1.18,0,0,1,0,1.64,1.18,1.18,0,0,1-.87.33,1.15,1.15,0,0,1-.85-.33,1.18,1.18,0,0,1,0-1.64,1.15,1.15,0,0,1,.85-.33A1.18,1.18,0,0,1,250.68,101.67Zm-.05,6v14.27H249V107.62Z"/><path class="cls-1" d="M258.77,103.5a2.39,2.39,0,0,0-.61,1.83v2.29h3.77l-.22,1.28h-3.55v13h-1.58v-13h-2.49v-1.28h2.49v-2.35a3.48,3.48,0,0,1,1.05-2.67,4.06,4.06,0,0,1,2.9-1,7.91,7.91,0,0,1,3.33.76l-.54,1.17a6.84,6.84,0,0,0-2.71-.62A2.63,2.63,0,0,0,258.77,103.5Z"/><path class="cls-1" d="M269.73,122a13,13,0,0,1-1.25,2.73,5.86,5.86,0,0,1-1.78,1.76,8.1,8.1,0,0,1-2.81,1l-.16-1.23a7.33,7.33,0,0,0,2.22-.87,4.07,4.07,0,0,0,1.28-1.3,11.46,11.46,0,0,0,1-2.17h-.54l-5-14.27h1.72l4.31,13.1,4.23-13.1h1.67Z"/><path class="cls-1" d="M294.14,104a3.73,3.73,0,0,1,1.27,2.91,3.92,3.92,0,0,1-1,2.7,12,12,0,0,1-3.15,2.32l5.59,5.24a23.1,23.1,0,0,0,1.8-5.19l1.5.44a22.19,22.19,0,0,1-2.32,5.71l3.39,3.11-1.18.92-3-2.86a8.28,8.28,0,0,1-2.64,2.13,7.64,7.64,0,0,1-3.48.73,6.82,6.82,0,0,1-2.92-.61,4.9,4.9,0,0,1-2.06-1.75,4.59,4.59,0,0,1-.75-2.6,4.82,4.82,0,0,1,1-3,10.23,10.23,0,0,1,2.95-2.41,13.62,13.62,0,0,1-2.13-2.42,4.34,4.34,0,0,1-.62-2.33,3.9,3.9,0,0,1,1.25-3,5.3,5.3,0,0,1,6.59,0Zm-6.57,10.7a4,4,0,0,0-.81,2.44,3.38,3.38,0,0,0,1.19,2.69,4.49,4.49,0,0,0,3,1,6,6,0,0,0,2.81-.61,7.12,7.12,0,0,0,2.18-1.84l-6-5.76A8.36,8.36,0,0,0,287.57,114.73ZM288.7,105a2.8,2.8,0,0,0-.82,2.06,3.58,3.58,0,0,0,.5,1.87,12.22,12.22,0,0,0,1.93,2.2,11.14,11.14,0,0,0,2.69-2,3.13,3.13,0,0,0,.86-2.15,2.7,2.7,0,0,0-.84-2.1,3,3,0,0,0-2.14-.76A2.92,2.92,0,0,0,288.7,105Z"/><path class="cls-1" d="M323.22,121.89l-1.64-5.1h-7.86l-1.63,5.1h-1.67l6.25-18.69h2.05l6.22,18.69Zm-9-6.49h7l-3.47-10.86Z"/><path class="cls-1" d="M338.31,121.89H337l-.08-2.53a5.21,5.21,0,0,1-4.67,2.83,3.86,3.86,0,0,1-3-1.13,4.57,4.57,0,0,1-1-3.23V107.62h1.59v10a3.64,3.64,0,0,0,.69,2.45,2.69,2.69,0,0,0,2.12.77q2.47,0,4.17-2.92V107.62h1.58Z"/><path class="cls-1" d="M350.6,121.29a5.35,5.35,0,0,1-3,.9,3.39,3.39,0,0,1-2.56-1,3.89,3.89,0,0,1-.93-2.8V108.9h-2.4v-1.28h2.4v-3.41l1.58-.19v3.6h3.69l-.19,1.28h-3.5v9.45a2.9,2.9,0,0,0,.52,1.87,2,2,0,0,0,1.58.61,4.36,4.36,0,0,0,2.19-.63Z"/><path class="cls-1" d="M362.43,109.27a10.09,10.09,0,0,1,0,10.92,5.95,5.95,0,0,1-8.87,0,8.48,8.48,0,0,1-1.6-5.45,9.89,9.89,0,0,1,.74-4,5.79,5.79,0,0,1,2.1-2.59,5.71,5.71,0,0,1,3.22-.9A5.44,5.44,0,0,1,362.43,109.27Zm-7.66.94a7.67,7.67,0,0,0-1.15,4.56,7.59,7.59,0,0,0,1.14,4.53,3.71,3.71,0,0,0,3.2,1.56,3.8,3.8,0,0,0,3.24-1.56,9.61,9.61,0,0,0,0-9.1,4.15,4.15,0,0,0-6.46,0Z"/><path class="cls-1" d="M385.3,108.49a4.82,4.82,0,0,1,1,3.2v10.2h-1.58v-10a4,4,0,0,0-.64-2.5,2.15,2.15,0,0,0-1.79-.81,3.34,3.34,0,0,0-2.15.77,8.67,8.67,0,0,0-1.86,2.18v10.34h-1.58v-10a4,4,0,0,0-.64-2.5,2.16,2.16,0,0,0-1.79-.81,3.38,3.38,0,0,0-2.18.77,8.22,8.22,0,0,0-1.83,2.18v10.34h-1.59V107.62H370l.13,2.43a6.67,6.67,0,0,1,1.94-2,4.47,4.47,0,0,1,2.46-.72,3.52,3.52,0,0,1,2.29.75,3.75,3.75,0,0,1,1.26,2.09,6.84,6.84,0,0,1,2-2.09,4.45,4.45,0,0,1,2.5-.75A3.39,3.39,0,0,1,385.3,108.49Z"/><path class="cls-1" d="M401.1,120.34a1.79,1.79,0,0,0,.91.74l-.35,1.11a2.72,2.72,0,0,1-1.51-.73,2.94,2.94,0,0,1-.7-1.67,4.88,4.88,0,0,1-4.45,2.4,4.43,4.43,0,0,1-3.23-1.15,4.12,4.12,0,0,1-1.19-3.1,4,4,0,0,1,1.57-3.41,7,7,0,0,1,4.35-1.2h2.73v-1.4a2.8,2.8,0,0,0-3.3-3.27,11.49,11.49,0,0,0-3.88.82l-.41-1.2a12.2,12.2,0,0,1,4.51-1q4.67,0,4.66,4.53v6.88A3.39,3.39,0,0,0,401.1,120.34Zm-1.87-1.94v-3.93h-2.48a5.49,5.49,0,0,0-3.33.85,2.94,2.94,0,0,0-1.15,2.54,3.09,3.09,0,0,0,.79,2.26,3,3,0,0,0,2.21.79A4.33,4.33,0,0,0,399.23,118.4Z"/><path class="cls-1" d="M413.07,121.29a5.34,5.34,0,0,1-3,.9,3.4,3.4,0,0,1-2.57-1,3.89,3.89,0,0,1-.93-2.8V108.9h-2.4v-1.28h2.4v-3.41l1.58-.19v3.6h3.69l-.19,1.28h-3.5v9.45a2.9,2.9,0,0,0,.52,1.87,2,2,0,0,0,1.59.61,4.35,4.35,0,0,0,2.18-.63Z"/><path class="cls-1" d="M425.62,115.37H416.1a6.65,6.65,0,0,0,1.32,4.14,4,4,0,0,0,3.13,1.35,5.46,5.46,0,0,0,2-.34,8.62,8.62,0,0,0,1.87-1.08l.74,1a8.21,8.21,0,0,1-2.18,1.31,6.85,6.85,0,0,1-2.49.43,5.45,5.45,0,0,1-4.44-1.93,8.17,8.17,0,0,1-1.61-5.38,10.55,10.55,0,0,1,.69-4,6,6,0,0,1,2-2.65,5,5,0,0,1,3-.94,4.92,4.92,0,0,1,4.15,1.84,8.17,8.17,0,0,1,1.42,5.07A10.33,10.33,0,0,1,425.62,115.37Zm-1.5-1.64a6.17,6.17,0,0,0-1-3.75,3.44,3.44,0,0,0-3-1.35A3.49,3.49,0,0,0,417.3,110a7,7,0,0,0-1.2,4.14h8Z"/><path class="cls-2" d="M252.27,75A20,20,0,0,1,241,78.34q-6.17,0-9.64-3.64t-3.49-10.51V28.4h-9V23.58h9V10.77l5.95-.72V23.58h13.84l-.72,4.82H233.82V63.88q0,4.71,2,7c1.29,1.54,3.28,2.31,5.94,2.31a16.38,16.38,0,0,0,8.21-2.36Z"/><path class="cls-2" d="M294.16,29.79q6,7.32,6,20.45t-6.1,20.56q-6.1,7.53-16.67,7.54T260.73,70.9q-6-7.43-6-20.45a37.08,37.08,0,0,1,2.77-14.87,21.64,21.64,0,0,1,7.9-9.74,21.4,21.4,0,0,1,12.1-3.38Q288.17,22.46,294.16,29.79ZM265.4,33.32q-4.31,5.85-4.31,17.13t4.26,17q4.25,5.84,12,5.84a14.29,14.29,0,0,0,12.15-5.84q4.36-5.85,4.36-17.23,0-11.18-4.25-17T277.5,27.48Q269.7,27.48,265.4,33.32Z"/><path class="cls-2" d="M377.52,26.86q3.74,4.41,3.74,12V77.21h-5.95V39.68c0-4.24-.8-7.36-2.41-9.38a8.08,8.08,0,0,0-6.71-3,12.64,12.64,0,0,0-8.1,2.87,32.89,32.89,0,0,0-7,8.21V77.21h-5.95V39.68c0-4.24-.81-7.36-2.41-9.38a8.11,8.11,0,0,0-6.72-3,12.79,12.79,0,0,0-8.2,2.87A31.71,31.71,0,0,0,321,38.35V77.21h-6V23.58h5.13l.51,9.13a24.47,24.47,0,0,1,7.28-7.54,16.66,16.66,0,0,1,9.23-2.71,13.28,13.28,0,0,1,8.61,2.81,14,14,0,0,1,4.72,7.85,25.88,25.88,0,0,1,7.43-7.85,16.72,16.72,0,0,1,9.39-2.81A12.71,12.71,0,0,1,377.52,26.86Z"/><path class="cls-2" d="M434.32,71.36a6.55,6.55,0,0,0,3.43,2.77l-1.33,4.21a10.5,10.5,0,0,1-5.69-2.77,11.07,11.07,0,0,1-2.61-6.26q-5.53,9-16.72,9-7.68,0-12.15-4.36t-4.46-11.64q0-8.31,5.9-12.82T417,45H427.3V39.78q0-6.45-2.87-9.38t-9.54-2.92a43.48,43.48,0,0,0-14.56,3.08L398.79,26a46,46,0,0,1,16.92-3.58q17.54,0,17.53,17V65.31C433.24,68.12,433.6,70.13,434.32,71.36Zm-7-7.28V49.32H418q-8.21,0-12.51,3.18T401.15,62q0,5.53,3,8.51c2,2,4.75,3,8.31,3Q422.06,73.52,427.3,64.08Z"/><path class="cls-2" d="M476.72,75a20,20,0,0,1-11.28,3.39q-6.15,0-9.64-3.64t-3.49-10.51V28.4h-9V23.58h9V10.77l5.95-.72V23.58H472.1l-.71,4.82H458.26V63.88q0,4.71,1.95,7t6,2.31a16.37,16.37,0,0,0,8.2-2.36Z"/><path class="cls-2" d="M490.87,1.23a4.18,4.18,0,0,1,1.23,3.08,4.16,4.16,0,0,1-1.23,3.07,4.47,4.47,0,0,1-3.29,1.23,4.28,4.28,0,0,1-3.17-1.23,4.16,4.16,0,0,1-1.23-3.07,4.18,4.18,0,0,1,1.23-3.08A4.28,4.28,0,0,1,487.58,0,4.47,4.47,0,0,1,490.87,1.23Zm-.21,22.35V77.21h-6V23.58Z"/><path class="cls-2" d="M545,29.79q6,7.32,6,20.45t-6.1,20.56q-6.11,7.53-16.66,7.54T511.52,70.9q-6-7.43-6-20.45a37.08,37.08,0,0,1,2.76-14.87,20.67,20.67,0,0,1,20-13.12Q539,22.46,545,29.79Zm-28.76,3.53q-4.31,5.85-4.31,17.13t4.26,17q4.25,5.84,12.05,5.84a14.32,14.32,0,0,0,12.15-5.84q4.35-5.85,4.35-17.23,0-11.18-4.25-17t-12.15-5.79Q520.49,27.48,516.19,33.32Z"/><path class="cls-2" d="M600.62,26.76q3.86,4.3,3.85,12.1V77.21h-6V39.68q0-6.47-2.56-9.43c-1.71-2-4.24-3-7.59-3a15.19,15.19,0,0,0-9.07,2.82,31.11,31.11,0,0,0-7.54,8.26V77.21h-6V23.58h5.13l.62,9.13a25,25,0,0,1,7.79-7.54,19.3,19.3,0,0,1,10.15-2.71Q596.78,22.46,600.62,26.76Z"/><path class="cls-3" d="M139.86,21l-10.28,9.38a20.27,20.27,0,0,1-13.74,35.19V79.47a34.15,34.15,0,0,0,24-58.46Z"/><path class="cls-4" d="M115.84,11.12A34.21,34.21,0,0,0,82.46,38l13.62,2.72a20.27,20.27,0,0,1,33.5-10.32L139.86,21A34.08,34.08,0,0,0,115.84,11.12Z"/><path class="cls-5" d="M81.66,45.3a34.23,34.23,0,0,0,19.63,30.92l5.84-12.61a20.25,20.25,0,0,1-11-22.9L82.46,38A33.83,33.83,0,0,0,81.66,45.3Z"/><path class="cls-6" d="M44.84,11.06H21V79.47H44.84c10.12,0,18.14-3,23.82-9.09S77.2,55.91,77.2,45.24s-2.88-19.12-8.56-25.12S54.93,11.06,44.84,11.06ZM66.39,45.34c0,7.7-2,13.76-5.8,18s-9.3,6.34-16.29,6.34H31.63V20.86H44.3c6.93,0,12.4,2.15,16.24,6.38S66.39,37.6,66.39,45.34ZM210.22,58.1,210,59.45a22.68,22.68,0,0,1-9,14.61c-4.8,3.59-10.75,5.41-17.68,5.41-8.89,0-16-3.12-21.25-9.29s-7.77-14.48-7.77-24.89,2.6-18.83,7.75-24.94,12.33-9.29,21.22-9.29A27.69,27.69,0,0,1,201.08,17,24,24,0,0,1,210,32.55l.21,1.32H200l-.22-.86A16.06,16.06,0,0,0,193.85,24a17.13,17.13,0,0,0-10.56-3.34,16,16,0,0,0-13.51,6.51c-3.37,4.41-5.08,10.53-5.08,18.17s1.72,13.71,5.1,18.12a16,16,0,0,0,13.54,6.51,18.69,18.69,0,0,0,10.67-3,13.57,13.57,0,0,0,5.73-8l.23-.85Z"/><circle class="cls-7" cx="6.63" cy="70.42" r="6.63"/></g></g></svg>